<svg id="Layer_1" data-name="Layer 1" xmlns="http://www.w3.org/2000/svg" viewBox="0 0 427.87 416.76">
<clipPath id="myClip">
  <path d="M328.75,263.39c3.93-2.29,7.83-4.65,11.8-6.87A138.26,138.26,0,0,1,383.22,241c11.9-2.2,23.86-3.65,36-2.78,30.66,2.2,58.5,12,82.8,31.14,1.25,1,2.5,2,3.67,3.05,5.6,5.14,7,12.63,2.79,19a185.61,185.61,0,0,1-14.65,19.9,134.06,134.06,0,0,1-54.92,38.12,44.49,44.49,0,0,0-4.29,2.2,21.42,21.42,0,0,0,1.82,4.19c10.52,14.31,16.62,30.62,21,47.56,3.5,13.45,4,27.27,3.56,41.13-.61,20.15-6,39.08-14.48,57.2-10.65,22.75-25.91,42.13-44.13,59.26-21.6,20.33-46.27,36-73.41,47.82a241.88,241.88,0,0,1-37.19,13c-9.17,2.33-18.62,3.56-27.93,5.39-15.4,3-31,3.06-46.54,2.52-6.62-.23-13.19-1.79-19.82-2.31a105.27,105.27,0,0,1-18.18-3.44c-4.59-1.18-9.12-2.6-13.6-4.15-8.92-3.09-11.3-11.28-8.82-18.87,1.67-5.11,3.88-10.05,5.91-15,1.88-4.62,2-4.7-2.22-7.11a158.28,158.28,0,0,1-32.17-24.41,154.35,154.35,0,0,1-25.22-32.71,158.59,158.59,0,0,1-15.07-35.88c-1.81-6.35-2.1-13.13-3.62-19.59-2.14-9.13-1.35-18.34-1.38-27.52a104,104,0,0,1,4.1-27.66A228.88,228.88,0,0,1,95,387c6.72-17,16.76-31.93,29.18-45.33a153.43,153.43,0,0,1,58.78-39.46,156.11,156.11,0,0,1,35.46-8.63c9.53-1.25,19-1.29,28.48-1.26,9.88,0,19.55,1.85,29.16,4,4.71,1.05,5.48.76,7.21-3.65l25.7-65.43c.7-1.77,1.6-3.46,2.26-5.24,2.49-6.72,10.93-9.82,15.94-8.63,8.25,1.95,11.85,7,12.43,14.22.21,2.52-1,5.26-1.95,7.75-3,7.85-6.14,15.63-9.16,23.46a26.62,26.62,0,0,0-.9,3.9Zm-138,332.7a44.48,44.48,0,0,0,6.17,1.81c7.54,1,15.1,1.82,22.65,2.71,8.75,1,17.39,0,26.12-.67a230.43,230.43,0,0,0,31.41-4.84,211.13,211.13,0,0,0,36.63-11.62,228.66,228.66,0,0,0,54.56-31.79,188.87,188.87,0,0,0,42.87-46.86,130.8,130.8,0,0,0,20.66-62.53c.5-7.68-.47-15.54-1.53-23.21a111.79,111.79,0,0,0-7.4-26.49c-11.25-27.9-31.25-46.89-59-57.9-7.53-3-15.41-4.69-23.33-6.42-7.11-1.55-14.23-1.34-21.31-1.4-6.1-.06-12.33-.19-18.4,1.78-5.24,1.7-10.91,2.1-16.11,3.89-20.59,7.08-38.11,18.82-51.63,36-14.84,18.85-23.48,40.1-23.58,64.41,0,3.82,0,7.64,0,11.46A44.66,44.66,0,0,0,210,452c2.32,11.85,5.61,23.35,11.32,34.14A14.54,14.54,0,0,1,214,506.37c-6.83,2.57-15.6.18-19.09-7-4.6-9.42-9-18.94-11-29.31-1.59-8.23-3.62-16.46-4.27-24.78a130.61,130.61,0,0,1,4.22-42.92,137.26,137.26,0,0,1,52-76.85,49.47,49.47,0,0,0,3.9-3.69c-2.36-.3-3.6-.71-4.76-.57-8.65,1-17.4,1.56-25.88,3.39a113.58,113.58,0,0,0-31.41,12.08c-25.41,14.2-44,34.5-55.3,61.44a128.61,128.61,0,0,0-7.7,25.87,110.86,110.86,0,0,0-2.17,25,126.9,126.9,0,0,0,5.16,31.3,124.58,124.58,0,0,0,70.87,79.35A15.79,15.79,0,0,1,198,569.83c1.42,4.45.06,8.43-1.56,12.43C194.63,586.64,192.83,591,190.74,596.09ZM334.9,297.76a28.14,28.14,0,0,0,3.46.93,141.12,141.12,0,0,1,35.41,8.5,121.44,121.44,0,0,1,29,15.24,50.71,50.71,0,0,0,6.82,4.34,6.15,6.15,0,0,0,3.94.5,106.35,106.35,0,0,0,23.08-8.47,113.83,113.83,0,0,0,36.18-28.16c3-3.46,2.74-4.29-1-6.58a110,110,0,0,0-46-15.55c-12.92-1.39-26.06-1.24-38.86,1.64a114.88,114.88,0,0,0-28.56,10.16,102.47,102.47,0,0,0-20.56,13.62A24.18,24.18,0,0,0,334.9,297.76Z" transform="translate(-83.02 -213.11)"/>

  </clipPath>
   <g clip-path="url(#myClip)">      
    <image class="cool-gif" href="https://media.giphy.com/media/JrSU1udDBI8Y8/giphy.gif" x="0" y="0" width="100%" height="100%" preserveAspectRatio="xMidYMid slice"/>
  </g> 

</svg>
